<svg width="43" height="12" viewBox="0 0 43 12" fill="none" xmlns="http://www.w3.org/2000/svg">
<path d="M8.384 3.532C8.384 3.972 8.272 4.392 8.048 4.792C7.832 5.192 7.536 5.544 7.16 5.848C6.792 6.144 6.356 6.38 5.852 6.556C5.356 6.732 4.828 6.82 4.268 6.82C4.068 6.82 3.908 6.796 3.788 6.748C3.676 6.692 3.548 6.588 3.404 6.436C3.004 7.308 2.676 8.112 2.42 8.848C2.172 9.576 1.976 10.284 1.832 10.972C1.528 10.9 1.28 10.772 1.088 10.588C0.896 10.412 0.72 10.188 0.56 9.916C0.64 9.764 0.736 9.564 0.848 9.316C0.96 9.068 1.096 8.764 1.256 8.404C1.416 8.036 1.6 7.6 1.808 7.096C2.024 6.584 2.276 5.988 2.564 5.308C2.692 4.996 2.804 4.724 2.9 4.492C2.996 4.26 3.08 4.044 3.152 3.844C3.224 3.636 3.288 3.432 3.344 3.232C3.408 3.032 3.472 2.812 3.536 2.572C3.16 2.692 2.812 2.832 2.492 2.992C2.18 3.152 1.92 3.32 1.712 3.496C1.64 3.448 1.564 3.376 1.484 3.28C1.412 3.184 1.344 3.08 1.28 2.968C1.216 2.848 1.16 2.728 1.112 2.608C1.064 2.488 1.036 2.38 1.028 2.284C1.26 2.124 1.548 1.976 1.892 1.84C2.236 1.704 2.604 1.588 2.996 1.492C3.388 1.388 3.792 1.308 4.208 1.252C4.632 1.196 5.036 1.168 5.42 1.168C5.876 1.168 6.288 1.228 6.656 1.348C7.024 1.46 7.336 1.62 7.592 1.828C7.848 2.036 8.044 2.284 8.18 2.572C8.316 2.86 8.384 3.18 8.384 3.532ZM6.248 2.092C5.944 2.092 5.632 2.116 5.312 2.164L5.456 2.38C5.376 2.484 5.276 2.64 5.156 2.848C5.036 3.056 4.904 3.308 4.76 3.604C4.616 3.892 4.456 4.216 4.28 4.576C4.112 4.936 3.932 5.316 3.74 5.716C4.364 5.716 4.932 5.66 5.444 5.548C5.956 5.428 6.392 5.268 6.752 5.068C7.12 4.86 7.404 4.62 7.604 4.348C7.812 4.076 7.916 3.784 7.916 3.472C7.916 3.056 7.776 2.724 7.496 2.476C7.216 2.22 6.8 2.092 6.248 2.092ZM11.7103 5.152C11.7903 5.152 11.8823 5.168 11.9863 5.2C12.0983 5.224 12.1983 5.26 12.2863 5.308C12.3743 5.348 12.4463 5.392 12.5023 5.44C12.5663 5.488 12.5983 5.532 12.5983 5.572C12.4383 5.908 12.2903 6.248 12.1543 6.592C12.0183 6.928 11.9023 7.252 11.8063 7.564C11.7103 7.876 11.6343 8.168 11.5783 8.44C11.5303 8.712 11.5063 8.948 11.5063 9.148C11.5063 9.372 11.5303 9.56 11.5783 9.712C11.6263 9.856 11.7063 9.96 11.8183 10.024C11.7223 10.088 11.5983 10.14 11.4463 10.18C11.2943 10.22 11.1583 10.24 11.0383 10.24C10.6063 10.24 10.3903 9.944 10.3903 9.352C10.3903 8.896 10.5423 8.272 10.8463 7.48C10.6863 7.848 10.5023 8.196 10.2943 8.524C10.0863 8.844 9.87425 9.128 9.65825 9.376C9.44225 9.624 9.22225 9.828 8.99825 9.988C8.78225 10.14 8.58225 10.232 8.39825 10.264C8.10225 10.248 7.86225 10.108 7.67825 9.844C7.49425 9.572 7.40225 9.228 7.40225 8.812C7.40225 8.364 7.49825 7.892 7.69025 7.396C7.88225 6.9 8.12625 6.44 8.42225 6.016C8.72625 5.592 9.05425 5.24 9.40625 4.96C9.75825 4.672 10.0983 4.52 10.4263 4.504C10.5063 4.528 10.5943 4.576 10.6903 4.648C10.7943 4.72 10.8903 4.804 10.9783 4.9C11.0743 4.996 11.1543 5.096 11.2183 5.2C11.2823 5.296 11.3183 5.38 11.3263 5.452C11.0063 5.5 10.6743 5.656 10.3303 5.92C9.99425 6.184 9.68625 6.504 9.40625 6.88C9.13425 7.248 8.91025 7.644 8.73425 8.068C8.55825 8.492 8.47025 8.888 8.47025 9.256C8.47025 9.408 8.52625 9.504 8.63825 9.544C8.87025 9.496 9.13825 9.3 9.44225 8.956C9.74625 8.604 10.1143 8.064 10.5463 7.336C10.6263 7.192 10.7143 7.032 10.8103 6.856C10.9143 6.68 11.0183 6.496 11.1223 6.304C11.2263 6.112 11.3263 5.92 11.4223 5.728C11.5263 5.528 11.6223 5.336 11.7103 5.152ZM12.919 9.76C12.959 9.528 13.027 9.224 13.123 8.848C13.227 8.464 13.347 8.06 13.483 7.636C13.619 7.204 13.763 6.772 13.915 6.34C14.067 5.908 14.215 5.52 14.359 5.176C14.463 4.928 14.555 4.736 14.635 4.6C14.715 4.456 14.803 4.336 14.899 4.24C15.011 4.256 15.127 4.284 15.247 4.324C15.367 4.364 15.483 4.412 15.595 4.468C15.707 4.524 15.807 4.584 15.895 4.648C15.983 4.704 16.051 4.76 16.099 4.816C15.883 5.072 15.691 5.364 15.523 5.692C15.363 6.02 15.199 6.44 15.031 6.952C15.463 6.568 15.843 6.2 16.171 5.848C16.507 5.496 16.819 5.104 17.107 4.672C17.155 4.632 17.239 4.612 17.359 4.612C17.471 4.612 17.579 4.632 17.683 4.672C17.787 4.704 17.859 4.752 17.899 4.816C17.755 5.2 17.683 5.58 17.683 5.956C17.683 6.308 17.735 6.572 17.839 6.748C17.831 6.796 17.775 6.888 17.671 7.024C17.575 7.16 17.467 7.288 17.347 7.408C17.131 7.296 16.939 7.144 16.771 6.952C16.603 6.752 16.479 6.536 16.399 6.304C16.023 6.568 15.703 6.828 15.439 7.084C15.175 7.332 14.947 7.612 14.755 7.924C14.571 8.228 14.411 8.58 14.275 8.98C14.147 9.38 14.023 9.856 13.903 10.408C13.831 10.4 13.743 10.372 13.639 10.324C13.543 10.284 13.443 10.232 13.339 10.168C13.243 10.104 13.155 10.036 13.075 9.964C12.995 9.892 12.943 9.824 12.919 9.76ZM18.0708 8.872C18.0708 8.584 18.1428 8.184 18.2868 7.672C18.4388 7.16 18.6348 6.6 18.8748 5.992C19.1148 5.384 19.3868 4.756 19.6908 4.108C19.9948 3.46 20.2988 2.856 20.6028 2.296C20.9148 1.736 21.2108 1.252 21.4908 0.844C21.7788 0.436 22.0228 0.16 22.2228 0.0159998C22.3348 0.0239997 22.4548 0.0719995 22.5828 0.159999C22.7188 0.248 22.8428 0.356 22.9548 0.483999C23.0668 0.603999 23.1588 0.731999 23.2308 0.868C23.3108 1.004 23.3508 1.128 23.3508 1.24C22.9908 1.528 22.6228 1.9 22.2468 2.356C21.8788 2.804 21.5268 3.3 21.1908 3.844C20.8548 4.38 20.5428 4.952 20.2548 5.56C19.9748 6.16 19.7388 6.752 19.5468 7.336C19.8028 6.896 20.0708 6.496 20.3508 6.136C20.6308 5.776 20.9108 5.468 21.1908 5.212C21.4708 4.956 21.7428 4.76 22.0068 4.624C22.2788 4.48 22.5348 4.404 22.7748 4.396C23.1268 4.652 23.3028 4.992 23.3028 5.416C23.3028 5.672 23.2508 5.932 23.1468 6.196C23.0428 6.452 22.9028 6.692 22.7268 6.916C22.5588 7.132 22.3628 7.32 22.1388 7.48C21.9228 7.632 21.6948 7.732 21.4548 7.78C21.5348 8.06 21.6348 8.344 21.7548 8.632C21.8828 8.92 22.0308 9.2 22.1988 9.472C22.3748 9.744 22.5708 9.996 22.7868 10.228C23.0108 10.46 23.2628 10.656 23.5428 10.816C23.5028 10.896 23.4428 10.976 23.3628 11.056C23.2828 11.136 23.1868 11.204 23.0748 11.26C22.9628 11.324 22.8388 11.372 22.7028 11.404C22.5748 11.444 22.4468 11.464 22.3188 11.464C22.1028 11.464 21.8988 11.356 21.7068 11.14C21.5228 10.924 21.3548 10.612 21.2028 10.204C21.0828 9.876 20.9668 9.484 20.8548 9.028C20.7428 8.572 20.6428 8.096 20.5548 7.6C20.6668 7.528 20.8068 7.424 20.9748 7.288C21.1428 7.144 21.3188 6.98 21.5028 6.796C22.2068 6.116 22.5588 5.528 22.5588 5.032C22.5588 4.968 22.5148 4.936 22.4268 4.936C22.2668 4.944 22.0788 5.02 21.8628 5.164C21.6468 5.308 21.4148 5.508 21.1668 5.764C20.9268 6.02 20.6788 6.32 20.4228 6.664C20.1748 7.008 19.9348 7.38 19.7028 7.78C19.6068 7.94 19.5188 8.124 19.4388 8.332C19.3588 8.54 19.2868 8.756 19.2228 8.98C19.1668 9.196 19.1228 9.412 19.0908 9.628C19.0588 9.844 19.0428 10.044 19.0428 10.228C19.0428 10.34 19.0548 10.432 19.0788 10.504C18.8308 10.48 18.6788 10.416 18.6228 10.312C18.5588 10.216 18.5028 10.136 18.4548 10.072C18.4148 10.016 18.3708 9.968 18.3228 9.928C18.2508 9.872 18.1908 9.752 18.1428 9.568C18.0948 9.384 18.0708 9.152 18.0708 8.872ZM31.6417 1.132C31.9457 1.132 32.2617 1.188 32.5897 1.3C32.9177 1.412 33.2057 1.556 33.4537 1.732C33.3737 2.14 33.2977 2.508 33.2257 2.836C33.1617 3.164 33.1017 3.464 33.0457 3.736C32.9897 4 32.9337 4.244 32.8777 4.468C32.8297 4.684 32.7817 4.888 32.7337 5.08C32.5417 5.8 32.3417 6.452 32.1337 7.036C31.9337 7.612 31.7177 8.132 31.4857 8.596C31.2617 9.06 31.0217 9.472 30.7657 9.832C30.5177 10.192 30.2497 10.508 29.9617 10.78C29.6817 11.044 29.4017 11.26 29.1217 11.428C28.8417 11.596 28.5817 11.704 28.3417 11.752C28.0217 11.752 27.7257 11.716 27.4537 11.644C27.1817 11.572 26.9457 11.472 26.7457 11.344C26.5537 11.224 26.4017 11.076 26.2897 10.9C26.1857 10.732 26.1337 10.544 26.1337 10.336C26.1337 10.112 26.1897 9.832 26.3017 9.496C26.4137 9.152 26.5857 8.748 26.8177 8.284C26.9137 8.292 27.0257 8.316 27.1537 8.356C27.2817 8.396 27.4097 8.444 27.5377 8.5C27.6657 8.556 27.7817 8.62 27.8857 8.692C27.9897 8.756 28.0657 8.82 28.1137 8.884C27.8577 9.148 27.6497 9.44 27.4897 9.76C27.3297 10.072 27.2497 10.344 27.2497 10.576C27.2497 10.712 27.2737 10.832 27.3217 10.936C27.3777 11.048 27.4697 11.148 27.5977 11.236C28.0857 11.052 28.5617 10.708 29.0257 10.204C29.4897 9.708 29.9017 9.088 30.2617 8.344C30.4777 7.904 30.6737 7.4 30.8497 6.832C31.0257 6.264 31.1737 5.696 31.2937 5.128C31.4217 4.552 31.5177 4.004 31.5817 3.484C31.6537 2.956 31.6897 2.512 31.6897 2.152C31.6897 2.096 31.6857 2.02 31.6777 1.924C31.6777 1.82 31.6737 1.716 31.6657 1.612C31.6657 1.5 31.6617 1.4 31.6537 1.312C31.6457 1.224 31.6417 1.164 31.6417 1.132ZM33.1174 9.196C33.1174 9.124 33.1214 9.036 33.1294 8.932C33.1454 8.82 33.1694 8.676 33.2014 8.5C33.2334 8.316 33.2734 8.096 33.3214 7.84C33.3774 7.584 33.4454 7.276 33.5254 6.916C33.5414 6.836 33.5774 6.708 33.6334 6.532C33.6894 6.356 33.7614 6.172 33.8494 5.98C33.9454 5.78 34.0574 5.588 34.1854 5.404C34.3214 5.22 34.4814 5.084 34.6654 4.996C34.8014 5.028 34.9814 5.112 35.2054 5.248C35.4294 5.376 35.6214 5.556 35.7814 5.788C35.5974 5.996 35.4414 6.204 35.3134 6.412C35.1934 6.62 35.0814 6.836 34.9774 7.06C34.8814 7.284 34.7894 7.516 34.7014 7.756C34.6214 7.996 34.5294 8.248 34.4254 8.512C34.3374 8.736 34.2574 8.968 34.1854 9.208C34.1134 9.44 34.0734 9.644 34.0654 9.82C34.0654 9.964 34.0614 10.064 34.0534 10.12C34.0534 10.184 34.0334 10.216 33.9934 10.216C33.9614 10.216 33.8974 10.196 33.8014 10.156C33.7054 10.116 33.6054 10.056 33.5014 9.976C33.4054 9.888 33.3174 9.78 33.2374 9.652C33.1574 9.524 33.1174 9.372 33.1174 9.196ZM35.4094 3.988C35.4094 3.94 35.4214 3.868 35.4454 3.772C35.4054 3.732 35.3694 3.672 35.3374 3.592C35.3134 3.512 35.3014 3.44 35.3014 3.376C35.3014 3.304 35.3094 3.208 35.3254 3.088C35.3494 2.96 35.3774 2.824 35.4094 2.68C35.4414 2.536 35.4814 2.388 35.5294 2.236C35.5774 2.076 35.6254 1.932 35.6734 1.804C35.7694 1.804 35.8854 1.832 36.0214 1.888C36.1654 1.936 36.3094 2.004 36.4534 2.092C36.5974 2.172 36.7294 2.264 36.8494 2.368C36.9694 2.464 37.0614 2.556 37.1254 2.644C37.0374 2.732 36.9214 2.856 36.7774 3.016C36.6334 3.168 36.4934 3.332 36.3574 3.508C36.2214 3.676 36.0974 3.836 35.9854 3.988C35.8734 4.14 35.8014 4.248 35.7694 4.312C35.6734 4.296 35.5894 4.256 35.5174 4.192C35.4454 4.12 35.4094 4.052 35.4094 3.988ZM37.8853 4.18C38.0933 4.244 38.2893 4.388 38.4733 4.612C38.6573 4.828 38.7933 5.068 38.8813 5.332C38.7933 5.548 38.6573 5.808 38.4733 6.112C38.2893 6.416 38.1053 6.728 37.9213 7.048C37.7373 7.36 37.5693 7.66 37.4173 7.948C37.2733 8.228 37.1893 8.46 37.1653 8.644C37.2933 8.508 37.4333 8.352 37.5853 8.176C37.7453 7.992 37.8973 7.812 38.0413 7.636C38.1933 7.452 38.3333 7.288 38.4613 7.144C38.5893 6.992 38.6893 6.88 38.7613 6.808C38.9133 6.648 39.0933 6.464 39.3013 6.256C39.5093 6.04 39.7253 5.84 39.9493 5.656C40.1813 5.464 40.4133 5.304 40.6453 5.176C40.8773 5.04 41.0893 4.972 41.2813 4.972C41.4893 4.972 41.6613 5.044 41.7973 5.188C41.9413 5.324 42.0533 5.468 42.1333 5.62C42.1333 5.636 42.1013 5.66 42.0373 5.692C41.9813 5.716 41.8973 5.792 41.7853 5.92C41.6733 6.064 41.5453 6.264 41.4013 6.52C41.2653 6.768 41.1293 7.04 40.9933 7.336C40.8653 7.624 40.7573 7.92 40.6693 8.224C40.5813 8.528 40.5373 8.804 40.5373 9.052C40.5373 9.252 40.5613 9.38 40.6093 9.436C40.6653 9.492 40.7413 9.52 40.8373 9.52C40.9253 9.52 41.0173 9.5 41.1133 9.46C41.2093 9.42 41.2853 9.4 41.3413 9.4C41.3733 9.416 41.3973 9.452 41.4133 9.508C41.4373 9.556 41.4493 9.6 41.4493 9.64C41.3853 9.696 41.3093 9.752 41.2213 9.808C41.1333 9.864 41.0413 9.916 40.9453 9.964C40.8493 10.012 40.7533 10.052 40.6573 10.084C40.5693 10.116 40.4893 10.132 40.4173 10.132C40.1853 10.132 39.9933 10.096 39.8413 10.024C39.6973 9.96 39.5813 9.872 39.4933 9.76C39.4133 9.648 39.3573 9.516 39.3253 9.364C39.2933 9.204 39.2773 9.036 39.2773 8.86C39.2773 8.764 39.2853 8.656 39.3013 8.536C39.3173 8.416 39.3493 8.276 39.3973 8.116C39.4453 7.948 39.5133 7.752 39.6013 7.528C39.6893 7.296 39.8013 7.02 39.9373 6.7C39.9213 6.7 39.8133 6.756 39.6133 6.868C39.4133 6.98 39.1973 7.152 38.9653 7.384C38.5893 7.744 38.2493 8.1 37.9453 8.452C37.6493 8.804 37.3453 9.196 37.0333 9.628C36.8573 9.876 36.7013 10.084 36.5653 10.252C36.4373 10.428 36.3253 10.544 36.2293 10.6C36.0613 10.504 35.9373 10.368 35.8573 10.192C35.7773 10.024 35.7173 9.848 35.6773 9.664C35.6773 9.512 35.6973 9.32 35.7373 9.088C35.7853 8.856 35.8453 8.6 35.9173 8.32C35.9973 8.032 36.0933 7.732 36.2053 7.42C36.3173 7.108 36.4413 6.796 36.5773 6.484C36.8813 5.78 37.1573 5.228 37.4053 4.828C37.6613 4.428 37.8213 4.212 37.8853 4.18Z" fill="white"/>
</svg>
