<svg width="39" height="10" viewBox="0 0 39 10" fill="none" xmlns="http://www.w3.org/2000/svg">
<path d="M0.84 9.508V1.276H3.888C5.88 1.276 6.876 2.112 6.876 3.784C6.876 4.656 6.616 5.332 6.096 5.812C5.584 6.284 4.872 6.52 3.96 6.52H2.544V9.508H0.84ZM2.544 5.272H3.66C4.172 5.272 4.54 5.16 4.764 4.936C4.988 4.704 5.1 4.344 5.1 3.856C5.1 3.352 4.992 3.012 4.776 2.836C4.568 2.652 4.204 2.56 3.684 2.56H2.544V5.272ZM9.46388 9.616C8.87188 9.616 8.39988 9.468 8.04788 9.172C7.69588 8.876 7.51988 8.436 7.51988 7.852C7.51988 6.796 8.21188 6.168 9.59588 5.968L10.9639 5.8V5.38C10.9639 5.004 10.8679 4.752 10.6759 4.624C10.4839 4.496 10.1279 4.432 9.60788 4.432C8.99188 4.432 8.46788 4.496 8.03588 4.624V3.52C8.66788 3.296 9.39188 3.184 10.2079 3.184C11.7519 3.184 12.5239 3.808 12.5239 5.056V9.508H11.2399L11.1199 9.004H11.0479C10.7359 9.412 10.2079 9.616 9.46388 9.616ZM9.95588 8.548C10.4039 8.548 10.7399 8.436 10.9639 8.212V6.772L9.94388 6.88C9.63988 6.912 9.41588 6.992 9.27188 7.12C9.13588 7.248 9.06788 7.452 9.06788 7.732C9.06788 8.276 9.36388 8.548 9.95588 8.548ZM13.8913 9.508V3.292H15.4033V4.024H15.4633C15.6313 3.784 15.8593 3.592 16.1473 3.448C16.4353 3.304 16.7433 3.232 17.0713 3.232C17.2713 3.232 17.3913 3.248 17.4313 3.28V4.672C17.2553 4.64 17.0913 4.624 16.9393 4.624C16.3873 4.624 15.8953 4.752 15.4633 5.008V9.508H13.8913ZM18.3559 9.508V0.736H19.9399V9.508H18.3559ZM22.0999 9.508C21.1079 8.044 20.3959 6.972 19.9639 6.292C20.2919 5.804 20.9879 4.808 22.0519 3.304H23.6599L21.5959 6.184C21.9879 6.776 22.7239 7.884 23.8039 9.508H22.0999ZM26.0046 9.58C25.3326 9.58 24.7646 9.464 24.3006 9.232V8.008C24.6686 8.144 25.0926 8.212 25.5726 8.212C26.3806 8.212 26.7846 7.824 26.7846 7.048V1.276H28.5126V7.228C28.5126 7.932 28.3006 8.5 27.8766 8.932C27.4526 9.364 26.8286 9.58 26.0046 9.58ZM30.0289 9.508V3.292H31.6129V9.508H30.0289ZM30.0169 2.356V1.012H31.6249V2.356H30.0169ZM33.028 9.508V3.292H34.54V3.844H34.6C35.2 3.396 35.876 3.172 36.628 3.172C37.236 3.172 37.688 3.308 37.984 3.58C38.288 3.852 38.44 4.292 38.44 4.9V9.508H36.856V5.272C36.856 4.968 36.784 4.756 36.64 4.636C36.504 4.508 36.248 4.444 35.872 4.444C35.528 4.444 35.104 4.548 34.6 4.756V9.508H33.028Z" fill="black"/>
</svg>
